REM DIRINDEX 1\2,1\3
REM DIRNAME folder01,folder02,folder03
TITLE ""
FILE "DISC1Track17.mp3" MP3
  TRACK 01 AUDIO
    TITLE "0:"
    INDEX 01 00:00:00
  TRACK 02 AUDIO
    TITLE "3:cjc133_0738"
    INDEX 01 00:00:13
  TRACK 03 AUDIO
    TITLE "0:"
    INDEX 01 00:01:30
  TRACK 04 AUDIO
    TITLE "2:cjc133_0739"
    INDEX 01 00:02:08
  TRACK 05 AUDIO
    TITLE "2:cjc133_0740"
    INDEX 01 00:05:18
  TRACK 06 AUDIO
    TITLE "2:cjc133_0741"
    INDEX 01 00:08:23
  TRACK 07 AUDIO
    TITLE "0:"
    INDEX 01 00:10:33
  TRACK 08 AUDIO
    TITLE "2:cjc133_0742"
    INDEX 01 00:11:11
  TRACK 09 AUDIO
    TITLE "2:cjc133_0743"
    INDEX 01 00:13:65
  TRACK 10 AUDIO
    TITLE "2:cjc133_0744"
    INDEX 01 00:16:49
  TRACK 11 AUDIO
    TITLE "0:"
    INDEX 01 00:18:39
  TRACK 12 AUDIO
    TITLE "2:cjc133_0745"
    INDEX 01 00:19:18
  TRACK 13 AUDIO
    TITLE "2:cjc133_0746"
    INDEX 01 00:21:57
  TRACK 14 AUDIO
    TITLE "2:cjc133_0747"
    INDEX 01 00:24:27
  TRACK 15 AUDIO
    TITLE "0:"
    INDEX 01 00:26:13
  TRACK 16 AUDIO
    TITLE "2:cjc133_0748"
    INDEX 01 00:26:66
  TRACK 17 AUDIO
    TITLE "2:cjc133_0749"
    INDEX 01 00:29:07
  TRACK 18 AUDIO
    TITLE "2:cjc133_0750"
    INDEX 01 00:32:03
  TRACK 19 AUDIO
    TITLE "0:"
    INDEX 01 00:34:12
  TRACK 20 AUDIO
    TITLE "2:cjc133_0751"
    INDEX 01 00:34:61
  TRACK 21 AUDIO
    TITLE "2:cjc133_0752"
    INDEX 01 00:37:38
  TRACK 22 AUDIO
    TITLE "2:cjc133_0753"
    INDEX 01 00:40:48
  TRACK 23 AUDIO
    TITLE "0:"
    INDEX 01 00:42:72
  TRACK 24 AUDIO
    TITLE "2:cjc133_0754"
    INDEX 01 00:43:48
  TRACK 25 AUDIO
    TITLE "2:cjc133_0755"
    INDEX 01 00:44:56
  TRACK 26 AUDIO
    TITLE "2:cjc133_0756"
    INDEX 01 00:47:74
  TRACK 27 AUDIO
    TITLE "0:"
    INDEX 01 00:50:19
  TRACK 28 AUDIO
    TITLE "2:cjc133_0757"
    INDEX 01 00:50:74
  TRACK 29 AUDIO
    TITLE "2:cjc133_0758"
    INDEX 01 00:52:71
  TRACK 30 AUDIO
    TITLE "2:cjc133_0759"
    INDEX 01 00:55:36
  TRACK 31 AUDIO
    TITLE "0:"
    INDEX 01 00:57:05
  TRACK 32 AUDIO
    TITLE "2:cjc133_0760"
    INDEX 01 00:57:50
  TRACK 33 AUDIO
    TITLE "2:cjc133_0761"
    INDEX 01 00:59:02
  TRACK 34 AUDIO
    TITLE "2:cjc133_0762"
    INDEX 01 01:02:12
  TRACK 35 AUDIO
    TITLE "0:"
    INDEX 01 01:04:27
  TRACK 36 AUDIO
    TITLE "2:cjc133_0763"
    INDEX 01 01:05:03
  TRACK 37 AUDIO
    TITLE "2:cjc133_0764"
    INDEX 01 01:07:14
  TRACK 38 AUDIO
    TITLE "2:cjc133_0765"
    INDEX 01 01:10:28
  TRACK 39 AUDIO
    TITLE "0:"
    INDEX 01 01:12:48
  TRACK 40 AUDIO
    TITLE "2:cjc133_0766"
    INDEX 01 01:13:22
  TRACK 41 AUDIO
    TITLE "2:cjc133_0767"
    INDEX 01 01:15:33
  TRACK 42 AUDIO
    TITLE "2:cjc133_0768"
    INDEX 01 01:18:66
  TRACK 43 AUDIO
    TITLE "0:"
    INDEX 01 01:21:25
  TRACK 44 AUDIO
    TITLE "2:cjc133_0769"
    INDEX 01 01:22:03
  TRACK 45 AUDIO
    TITLE "2:cjc133_0770"
    INDEX 01 01:23:65
  TRACK 46 AUDIO
    TITLE "2:cjc133_0771"
    INDEX 01 01:27:18
  TRACK 47 AUDIO
    TITLE "0:"
    INDEX 01 01:29:56
  TRACK 48 AUDIO
    TITLE "2:cjc133_0772"
    INDEX 01 01:30:32
  TRACK 49 AUDIO
    TITLE "2:cjc133_0773"
    INDEX 01 01:31:32
  TRACK 50 AUDIO
    TITLE "2:cjc133_0774"
    INDEX 01 01:34:20
  TRACK 51 AUDIO
    TITLE "0:"
    INDEX 01 01:36:15
  TRACK 52 AUDIO
    TITLE "2:cjc133_0775"
    INDEX 01 01:36:68
  TRACK 53 AUDIO
    TITLE "2:cjc133_0776"
    INDEX 01 01:39:45
  TRACK 54 AUDIO
    TITLE "2:cjc133_0777"
    INDEX 01 01:42:39
  TRACK 55 AUDIO
    TITLE "0:"
    INDEX 01 01:44:34
  TRACK 56 AUDIO
    TITLE "2:cjc133_0778"
    INDEX 01 01:45:10
  TRACK 57 AUDIO
    TITLE "2:cjc133_0779"
    INDEX 01 01:48:18
  TRACK 58 AUDIO
    TITLE "2:cjc133_0780"
    INDEX 01 01:51:54
  TRACK 59 AUDIO
    TITLE "0:"
    INDEX 01 01:54:23
  TRACK 60 AUDIO
    TITLE "2:cjc133_0781"
    INDEX 01 01:54:74
  TRACK 61 AUDIO
    TITLE "2:cjc133_0782"
    INDEX 01 01:58:15
  TRACK 62 AUDIO
    TITLE "2:cjc133_0783"
    INDEX 01 02:01:41
  TRACK 63 AUDIO
    TITLE "0:"
    INDEX 01 02:03:73
